<?xml version="1.0" encoding="UTF-8"?>
<svg version="1.1" viewBox="0 0 1080 1080" width="1280" height="1280" xmlns="http://www.w3.org/2000/svg">
<path transform="translate(530,258)" d="m0 0h42l25 3 24 5 26 8 24 10 22 12 14 9 19 14 10 9 8 7 13 13 9 11 12 15 12 19 9 16 8 17 9 24 7 26 4 24 2 27v21l-3 31-6 28-11 33-14 29-10 17-10 14-11 14-9 10-8 9-8 7-11 10-20 15-21 13-15 8-24 10-21 7-22 5-18 3-22 2h-28l-22-2-23-4-23-6-20-7-20-9-19-10-11-7-17-12-13-11-10-9-15-15-9-11-13-17-13-21-10-19-10-25-6-19-5-21-3-19-1-11v-46l3-23 5-24 8-26 10-23 12-23 12-18 10-13 9-11 16-17 8-7 13-11 18-13 22-13 25-12 23-8 18-5 19-4z" fill="#E8EEFD"/>
<path transform="translate(481,312)" d="m0 0h11l7 4 6 7 2 5 1 12-2 10-2 6 38 10h7l11-7 10-8 3-1-3 10-7 16-8 14-8 10-12 13-12 9-5 4 23 3 15 1h13l15-2 9-4 3-4 1-4v-8l-3-14-6-16-12-25-1-4 16 1 25 3 19 2 45 3 23 1 2 12v16l-2 16-6 23-9 24-5 10-2 1-19-9-26-13 8 17 10 19 14 28 10 19 15 29 12 22 16 31 7 12 8 16 1 5-19 19-13 10-22 14-18 10-27 13-20 8-40 10-33 6-31 3h-29l-7-1-2-6-9-43-5-25-10-48-9-41-4-20-6-24-1-9-3 3-12 27-7 16-9-3-23-13-19-13-15-14-10-11-5-10 2-4 7-7 8-7 24-22 8-8 8-7 9-9 7-8 9-9 7-8 3-2 4 16 6 21 6 16 7 11 6 5h9l9-4 11-7 13-12 10-9 7-8 5-6-10 1h-17l-17-3-12-3-21-9-13-8-1-2 27-4 5-3 10-9 8-7 14-14 8-11 4-9 1-4v-9l-3-8-6-5h-10l-4 4v8l4 6 3 3v5l-5 1-6-5-5-10v-7l4-8 6-4z" fill="#FECA31"/>
<path transform="translate(669,510)" d="m0 0 4 2 11 21 8 16 13 24 16 31 7 12 8 16 1 5-19 19-13 10-22 14-18 10-27 13-20 8-40 10-33 6-31 3h-29l-7-1-2-6-9-43-1-14 17 4 16 2h28l19-3 19-6 19-9 13-9 13-11 10-11 10-14 12-19 10-21 9-25 6-25z" fill="#FEBB24"/>
<path transform="translate(481,312)" d="m0 0h11l7 4 6 7 2 5 1 12-2 10-2 6 38 10h7l11-7 10-8 3-1-3 10-7 16-8 14-8 10-12 13-12 9-7 4-12 2h-17l-17-3-12-3-21-9-13-8-1-2 27-4 5-3 10-9 8-7 14-14 8-11 4-9 1-4v-9l-3-8-6-5h-10l-4 4v8l4 6 3 3v5l-5 1-6-5-5-10v-7l4-8 6-4z" fill="#495560"/>
<path transform="translate(865,859)" d="m0 0h4v92h-28l-1-10-7 8-8 3h-12l-9-3-10-9-6-10-2-10 1-11 4-10 9-10 10-5 5-1h8l9 3 6 5 2 3 1-31zm-39 45-7 3-4 6v10l5 6 4 2h7l5-3 4-5 1-2v-7l-4-6-4-3z" fill="#4986AD"/>
<path transform="translate(942,884)" d="m0 0h28l1 42 5 5h7l4-4 2-7 1-36h28v57l-2 12-5 12-7 8-9 6-7 2-13 1-9-1-2-1 1-17 2-3h14l6-4 3-7 1-8-4 5-6 4-7 2h-10l-10-4-8-9-4-13z" fill="#4985AD"/>
<path transform="translate(358,859)" d="m0 0h4l1 35 5-6 8-4 5-1h8l11 4 7 8 4 9 1 5v42h-28l-1-41-3-5-2-1h-6l-6 4-3 6-1 37h-29v-88z" fill="#4E89B0"/>
<path transform="translate(547,883)" d="m0 0h8l8 3 7 6 2 4 1-13h28v68h-28l-1-10-6 7-9 4h-12l-10-4-10-9-6-12-1-6v-8l4-13 9-10 8-5zm11 21-7 3-4 5-1 7 3 7 5 4 2 1h7l6-3 4-7v-7l-4-6-4-3z" fill="#4985AD"/>
<path transform="translate(745,883)" d="m0 0h8l10 3 7 6 5 10 2 9v40h-28l-1-40-3-6-8-1-5 3-4 6-1 4-1 34h-28v-66h27l1 11 7-8 8-4z" fill="#4885AD"/>
<path transform="translate(64,859)" d="m0 0h63v21h-34v18h32v17h-32v36h-29z" fill="#4985AD"/>
<path transform="translate(614,884)" d="m0 0h27l1 40 3 5 1 1h8l3-4 1-42h27v45l-4 9-6 7-10 5-8 2h-15l-10-3-10-6-6-9-2-5z" fill="#4885AD"/>
<path transform="translate(452,859)" d="m0 0h29v72h32v20h-61z" fill="#4985AD"/>
<path transform="translate(226,883)" d="m0 0h10l10 3 8 6 5 7 3 10v10l-1 1-38 5 3 5 4 2h15l11-3 3 13v5l-8 3-10 2h-16l-13-4-9-7-6-9-2-5-1-13 2-9 6-10 9-7 10-4zm5 16-7 3-3 5v5l13-2 7-2-1-5-4-3z" fill="#4A86AE"/>
<path transform="translate(420,403)" d="m0 0 5 2 18 10 18 7 18 4 10 1h15l11-1-4 6-7 7-7 8-12 11-13 10-10 5-3 1h-9l-8-7-6-10-7-19-6-22z" fill="#FCFCFC"/>
<path transform="translate(573,348)" d="m0 0h6l-4 1 12 24 8 21 3 14v8l-3 7-5 4-11 3-10 1h-13l-24-2-14-2v-3l12-8 12-11 9-11 8-12 8-17 6-16z" fill="#FCFCFC"/>
<path transform="translate(293,883)" d="m0 0h12l11 2 3 2-1 12-1 4-10-2h-14l1 4 16 5 8 5 4 5 1 3v13l-4 8-9 6-7 2h-18l-13-3-2-1 3-16 9 2h15l1-5-16-4-6-3-6-7-1-3v-13l5-8 7-5z" fill="#4A86AE"/>
<path transform="translate(184,883)" d="m0 0h3l4 20v2l-15 2-7 3-2 4-1 37h-28v-66h28l1 11 4-6 6-5z" fill="#4885AD"/>
<path transform="translate(928,883)" d="m0 0 4 1 3 16v5l-15 2-6 3-2 3-1 38h-28v-66h28l1 10 5-7 7-4z" fill="#4885AD"/>
<path transform="translate(530,465)" d="m0 0 4 1 4 9 30 90 14 43 4 12v6l-5 1-3-5-28-84-14-43-8-24v-5z" fill="#4A545E"/>
<path transform="translate(498,363)" d="m0 0 8 1 29 8 1 2-24 10-25 8-17 4-2-1 13-13 5-4 7-8z" fill="#E8EEFE"/>
<path transform="translate(721,480)" d="m0 0h7l6 3 4 5 1 2v9l-4 6-4 3-9 1-6-3-4-5-1-2v-9l3-6z" fill="#FDFDFD"/>
<path transform="translate(393,579)" d="m0 0h10l6 5 1 2v9l-5 6-5 2-7-1-5-4-2-5 1-8 5-5z" fill="#FDFDFD"/>
<path transform="translate(573,304)" d="m0 0 6 1 5 4 1 2v8l-4 5-5 2-6-1-5-5-1-2 1-9 5-4z" fill="#FDFDFD"/>
<path transform="translate(517,486)" d="m0 0 7 1 3 3 1 5-3 6-2 1h-6l-5-4v-7z" fill="#4A545E"/>
<path transform="translate(530,526)" d="m0 0 6 1 3 3 1 6-3 5-2 1h-6l-5-4v-7l4-4z" fill="#4A545E"/>
<path transform="translate(541,563)" d="m0 0h7l4 3 1 6-3 5-1 1h-8l-4-4v-7z" fill="#4A545E"/>
<path transform="translate(444,622)" d="m0 0 2 1v7l5 4v2h-8l-3 5h-2l-1-8-5-3v-2h9l2-5z" fill="#4885AD"/>
<path transform="translate(718,428)" d="m0 0h2l1 7 7 2v2l-6 2-2 6h-2l-2-6-7-3 1-2 7-1z" fill="#4885AD"/>
<path transform="translate(746,561)" d="m0 0 2 2 1 3 4 1v2l-5 1-1 5-2-2v-3l-5-1v-2l4-1z" fill="#4885AD"/>
<path transform="translate(425,661)" d="m0 0h1v5l3 1-4 2-3 2-2-5-1-2h5z" fill="#4885AD"/>
<path transform="translate(510,278)" d="m0 0 7 2-2 5h-3l-4-2h2z" fill="#4885AD"/>
</svg>
