<?xml version="1.0" encoding="UTF-8"?>
<svg version="1.1" viewBox="0 0 1080 1080" width="1280" height="1280" xmlns="http://www.w3.org/2000/svg">
<path transform="translate(548,76)" d="m0 0h21l35 2 30 4 26 5 27 7 33 11 24 10 25 12 22 12 22 14 18 13 13 10 13 11 10 9 12 11 14 14 7 8 9 10 11 14 14 19 10 15 9 15 10 18 8 16 10 22 8 21 8 24 7 27 7 37 3 27 1 25v34l-2 28-4 28-6 31-8 28-9 27-11 26-10 21-13 23-15 24-14 19-11 14-12 14-14 15-19 19-8 7-13 11-20 15-10 7-20 13-14 8-20 11-31 14-34 12-20 6-25 6-36 6-20 2-19 1h-37l-30-2-39-6-30-7-14-4-27-9-20-8-20-9-27-14-8-5-18-11-17-12-13-10-11-9-14-12-15-14-12-12-7-8-12-14-11-14-13-18-10-15-10-17-14-26-11-24-10-26-8-26-7-28-6-35-3-29-1-35 1-31 3-28 6-35 9-35 12-35 11-25 10-21 12-21 12-19 12-17 10-13 9-11 12-14 7-7 1-2h2l2-4 10-9 11-11 11-9 13-11 18-13 24-16 21-12 23-12 26-11 25-9 19-6 28-7 28-5 23-3z" fill="#E6EDFD"/>
<path transform="translate(466,137)" d="m0 0h14l10 5 6 7 4 9 1 4v13l-4 14-2 5 10 2 42 11h6l14-9 13-10 4-3-1 7-8 20-6 12-10 16-13 16-11 11-13 10-9 5-1 2 11 1 25 3 17 1h13l18-2 14-5 4-5 2-8-1-13-4-16-7-19-9-20-8-15v-3l23 3 48 5 40 3 17 1 31 1 7 2 2 10 1 11v9l-3 24-4 17-7 23-11 28-5 9-6-2-30-15-23-11 7 16 8 16 34 66 12 22 12 24 12 22 16 31 11 20 6 11 10 20 2 3-1 4-14 15-14 12-16 12-25 16-22 12-26 13-28 12-15 5-40 10-32 6-26 4-20 2-19 1h-19l-16-1-3-2-18-87-11-52-12-57-15-68-3-11-1-1-16 35-10 23-7-1-24-13-22-14-11-8-11-9-13-12-11-14-6-11 1-5 14-12 15-14 12-11 16-15 42-42 7-8 10-11h2l4 16 7 27 7 20 9 17 7 7 3 2 8 1 10-3 11-6 13-10 12-11 8-7 16-17 6-7-16 2h-15l-19-2-17-4-17-6-14-6-17-10-4-4 36-5 6-4 10-9 8-7 12-11 11-12 10-14 6-13 1-4v-12l-6-12-7-4-8-1-8 4-2 4 1 9 6 9 3 2 1 4-1 3-6 1-8-7-6-12v-11l3-6 5-5z" fill="#FECA31"/>
<path transform="translate(709,390)" d="m0 0 5 5 12 23 10 19 13 25 12 22 14 27 8 15 10 19 4 7-1 4-14 15-14 12-16 12-25 16-22 12-26 13-28 12-15 5-40 10-32 6-26 4-20 2-19 1h-19l-16-1-3-2-6-29-3-14-2-16-3-15v-5l8 1 26 5 9 1h32l15-2 20-4 21-7 10-5 11-6 12-7 13-11 6-5h2l2-4 7-7 15-20 7-10 10-17 9-17 11-27 8-26 5-22z" fill="#FEBB24"/>
<path transform="translate(972,597)" d="m0 0h12l17 2 9 2-2 14-5 25-8 28-9 27-11 26-10 21-13 23-15 24-14 19-11 14-12 14-14 15-19 19-8 7-13 11-20 15-10 7-20 13-5 3h-2l-4-13-3-19v-34l3-20 7-22 5-12 10-19 13-17 12-13 10-8 5-1 7 16 8 10 11 7 7 2h11l9-3 7-6 4-9v-11l-4-8-8-6-10-4-10-2h-12l-12 3h-4l-1-4v-15l3-19 5-17 7-16 10-16 11-13 11-11 11-8 13-8 17-7 15-4z" fill="#E7EDFD"/>
<path transform="translate(129,597)" d="m0 0h19l14 2 19 5 21 10 14 10 13 12 9 10 10 15 8 16 6 17 3 15 1 10v9l-1 9-7-1-10-2h-11l-13 3-10 4-5 4-4 8v13l4 8 7 6 8 3h11l12-4 9-7 7-10 6-14 4 1 8 6 11 10 9 11 9 13 11 21 7 20 4 17 2 14v31l-3 21-3 11-3 1-18-11-17-12-13-10-11-9-14-12-15-14-12-12-7-8-12-14-11-14-13-18-10-15-10-17-14-26-11-24-10-26-8-26-7-28-4-22v-6l12-3z" fill="#E6ECFC"/>
<path transform="translate(822,160)" d="m0 0 11 7 12 10 11 9 12 11 10 9 15 15 7 8 9 10 11 14 14 19 10 15 9 15 10 18 8 16 10 22 8 21 8 24 7 27 7 37 3 27v19l-7-1-21-8-19-10-13-9-15-13-10-11-10-14-11-21-6-18-3-14-1-10v-15l2-17 1-3 13-1 8-3 4-4-1-9-5-4-2-1h-8l-6 4-4 5-3 6-10-1-15-5-11-6-11-8-13-13-10-15-8-16-6-20-3-21v-23l3-22 5-22z" fill="#E6ECFC"/>
<path transform="translate(293,161)" d="m0 0 3 3 4 14 5 26 1 15v15l-2 17-5 21-7 17-8 13-9 11-9 9-13 9-17 8-12 3h-5l-6-11-6-4h-9l-6 4-2 4 1 7 4 4 5 2 14 1 2 5 2 16v11l-2 18-5 19-8 18-8 14-10 13-14 15-13 10-16 10-19 9-18 6h-2v-14l3-28 6-35 9-35 12-35 11-25 10-21 12-21 12-19 12-17 10-13 9-11 12-14 7-7 1-2h2l2-4 10-9 11-11 11-9 13-11z" fill="#E6ECFC"/>
<path transform="translate(466,137)" d="m0 0h14l10 5 6 7 4 9 1 4v13l-4 14-2 5 10 2 42 11h6l14-9 13-10 4-3-1 7-8 20-6 12-10 16-13 16-11 11-13 10-10 6-9 2-9 1h-15l-19-2-17-4-17-6-14-6-17-10-4-4 36-5 6-4 10-9 8-7 12-11 11-12 10-14 6-13 1-4v-12l-6-12-7-4-8-1-8 4-2 4 1 9 6 9 3 2 1 4-1 3-6 1-8-7-6-12v-11l3-6 5-5z" fill="#4B555F"/>
<path transform="translate(798,378)" d="m0 0h17l14 5 11 8 8 10 5 11 2 7v16l-4 12-6 10-7 8-11 7-14 4h-13l-12-3-11-6-7-6-7-10-5-12-1-7v-9l3-14 6-11 7-8 11-7 10-4z" fill="#E7EDFD"/>
<path transform="translate(266,442)" d="m0 0h15l15 5 10 7 8 9 6 12 2 7v18l-3 10-7 12-8 8-10 6-12 4h-16l-13-4-10-6-9-9-6-10-3-10-1-12 2-12 4-10 7-9 10-9 11-5z" fill="#E7EDFD"/>
<path transform="translate(966,591)" d="m0 0h23l15 2 7 3-1 5-9-1-17-2h-12l-19 2-18 5-15 7-14 8-13 11-10 10-11 15-8 14-8 21-3 12-2 15v19l16-4h12l16 4 10 6 6 8 1 3v11l-4 9-8 7-9 3h-11l-11-4-9-7-8-11-5-12v-2l-8 4-13 12-10 12-9 13-12 23-7 21-3 13-2 14v34l4 24 2 9-5 2-4-10-4-22-1-23 2-24 4-19 8-23 8-16 9-15 10-13 7-8 11-9 9-6h2l-1-5v-22l5-25 7-19 10-18 9-12 9-10 9-9 14-10 14-8 15-6 15-4z" fill="#9ACCFC"/>
<path transform="translate(128,591)" d="m0 0h19l17 2 21 6 19 9 12 8 11 9 11 11 12 16 9 16 6 15 4 15 3 19v24l11 7 13 12 9 10 9 13 9 16 8 19 5 17 3 16 2 23-1 21-3 19-4 14-6-2 4-18 2-16v-31l-4-24-6-19-7-16-8-15-12-16-10-11-11-9-6-3-3 10-7 12-9 8-8 4-7 2h-11l-10-4-8-9-2-5v-13l4-8 8-6 10-4 11-2h11l17 4v-18l-3-21-5-16-8-18-10-15-12-14-12-11-15-10-19-9-19-5-14-2h-19l-21 3-1-6 4-2z" fill="#9ACCFC"/>
<path transform="translate(387,254)" d="m0 0h3v2l5 1 19 11 20 8 16 5 17 3 12 1h15l17-2-6 8-9 9-7 8-7 7-8 7-13 11-13 8-9 4-8 1-6-2-8-7-6-9-7-15-7-22-6-24-2-12z" fill="#FDFDFD"/>
<path transform="translate(586,183)" d="m0 0 2 3 8 15 13 30 5 15 3 17-1 11-3 6-5 4-12 4-18 2h-13l-26-2-27-4 1-3 9-5 10-8 10-9 10-11 10-14 10-17 10-25 1-3h2z" fill="#FDFDFD"/>
<path transform="translate(816,157)" d="m0 0 5 2 1 2-5 16-4 20-2 17v23l3 21 6 20 8 16 8 12 9 10 7 7 16 10 15 6 14 3 2-6 7-8 4-2h8l6 4 3 5v6l-5 5-8 3h-13l-2 20v15l2 15 5 19 7 16 9 16 10 13 11 12 11 9 10 7 14 8 15 7 17 6h5v41h-1v-33l-12-3-16-6-16-8-13-8-12-9-13-12-12-14-10-16-8-16-6-18-4-22v-25l3-15-10-1-15-5-13-7-12-9-13-13-10-15-8-16-6-18-3-15-1-9v-30l3-21 6-25z" fill="#9ACCFC"/>
<path transform="translate(298,158)" d="m0 0 3 1 5 17 5 26 1 12v25l-2 16-6 22-8 18-8 12-8 10-10 10-13 9-16 8-19 5 2 15v24l-3 17-4 15-8 18-9 16-10 13-12 13-11 9-11 8-17 10-25 10-7 2h-4v-6l25-9 21-11 14-10 11-9 12-13 11-16 9-17 6-16 4-20 1-11v-11l-2-16-1-4-14-1-8-4-3-5 1-8 6-5 2-1h9l6 4 6 10v2l17-4 19-9 13-10 9-9 8-11 6-10 8-20 5-23 1-12v-15l-2-21-5-25-4-12z" fill="#9ACCFC"/>
<path transform="translate(466,137)" d="m0 0h14l10 5 6 7 4 9 1 4v13l-4 14-2 5 10 2 42 11h6l14-9 13-10 4-3-1 7-8 20-5 10-9-1-35-9-34-9-4 1-8 10-12 13-8 7-11 10-11 9-10 9-9 7-7-1-17-10-4-4 36-5 6-4 10-9 8-7 12-11 11-12 10-14 6-13 1-4v-12l-6-12-7-4-8-1-8 4-2 4 1 9 6 9 3 2 1 4-1 3-6 1-8-7-6-12v-11l3-6 5-5z" fill="#2E343C"/>
<path transform="translate(626,775)" d="m0 0h2v60h-18l-1-6-7 6-9 1-8-3-7-6-3-6-1-11 4-10 8-7 5-2h9l7 4 2 3 1-20z" fill="#4885AD"/>
<path transform="translate(529,334)" d="m0 0h5l3 4 23 70 20 60 14 43 8 24v6l-3 2-5-1-4-9-12-37-24-72-15-46-12-36-1-4 1-3z" fill="#30373E"/>
<path transform="translate(417,791)" d="m0 0h8l7 4 3 4 1-8h18v44h-18v-7h-2l-2 4-4 3-9 1-8-3-7-6-4-9v-10l5-10 5-4z" fill="#4885AD"/>
<path transform="translate(675,792)" d="m0 0h18l1 26 3 4 6-1 2-3 1-26h18v42l-3 9-7 8-11 4h-9l-5-1 1-11 1-2h8l5-2 2-4 1-6-1 1-5 4-9 2-9-3-6-7-2-8z" fill="#4885AD"/>
<path transform="translate(265,436)" d="m0 0h18l13 4 10 6 10 9 7 11 5 14 1 7v9l-3 13-7 14-10 11-11 7-10 4-5 1h-19l-13-4-9-5-10-9-6-7-5-11-3-13v-12l4-16 8-13 10-10 14-7zm1 6-13 4-10 6-9 9-6 10-3 10-1 13 3 14 5 10 9 10 8 6 10 4 7 2h16l14-5 10-7 8-9 7-14 1-5v-18l-5-14-8-11-8-7-10-5-10-3z" fill="#9ACCFC"/>
<path transform="translate(796,372)" d="m0 0h20l13 4 10 6 9 8 7 10 5 12 1 5v20l-4 12-6 11-8 9-10 7-13 5-4 1h-20l-12-4-9-5-8-6-8-10-5-10-3-12v-15l3-13 5-10 8-10 12-9zm2 6-12 4-10 6-7 6-7 11-4 11-1 7v9l2 10 7 14 4 5 10 8 11 5 9 2h13l16-5 11-8 8-10 5-11 2-7v-16l-4-12-5-9-8-9-11-7-12-4z" fill="#9ACCFC"/>
<path transform="translate(619,697)" d="m0 0h2l1 23 5-5 5-2h8l8 4 4 6 2 9v25h-18l-1-25-1-5h-8l-4 5-1 25h-18v-57z" fill="#4885AD"/>
<path transform="translate(254,456)" d="m0 0h13l10 5 6 8 1 3v14l-5 10-9 6-3 1h-13l-8-4-7-8-2-6v-11l3-7 3-5 8-5z" fill="#FEFEFE"/>
<path transform="translate(787,392)" d="m0 0h13l10 5 6 9 1 3v12l-3 7-7 8-7 3h-13l-8-4-7-8-2-5v-13l5-10 5-4z" fill="#FEFEFE"/>
<path transform="translate(546,791)" d="m0 0h8l8 4 5 8 1 5v27h-18l-1-26-2-4h-6l-4 4-1 2-1 24h-18v-43h17l1 7 4-5z" fill="#4885AD"/>
<path transform="translate(428,697)" d="m0 0h40l1 1v12l-22 1-1 12h21v10l-20 1-1 23h-18z" fill="#4885AD"/>
<path transform="translate(489,202)" d="m0 0 10 2 39 10v2l-22 10-22 8-24 7-18 4-4-1 16-15 9-8 7-8z" fill="#E7EDFD"/>
<path transform="translate(462,792)" d="m0 0h18l1 29h7l2-2 1-27h17v30l-5 8-6 4-9 2-11-1-8-4-6-7-1-4z" fill="#4885AD"/>
<path transform="translate(869,739)" d="m0 0h10l14 4 8 5 4 5 1 3v7l-4 8-6 5-6 2h-8l-9-3-9-7-7-10-4-10 1-5z" fill="#E7EDFD"/>
<path transform="translate(240,739)" d="m0 0 12 1 10 3 1 4-5 13-7 9-10 7-3 1h-15l-6-3-6-7-1-3v-9l4-6 6-5 13-4z" fill="#E7EDFD"/>
<path transform="translate(532,713)" d="m0 0h9l7 3 5 5 3 6v10l-24 3v2l2 2 8 1 11-2 2 11-8 3-13 1-10-3-8-7-3-6v-13l4-8 8-6z" fill="#4885AD"/>
<path transform="translate(357,775)" d="m0 0h18v47h21v13h-39z" fill="#4885AD"/>
<path transform="translate(575,713)" d="m0 0h12l6 2v7l-1 3h-15v2l12 4 6 5 1 3v8l-4 7-6 3-12 1-11-2-1-5 2-6 6 1h9v-3l-12-4-5-4-1-2v-10l4-6 6-3z" fill="#4885AD"/>
<path transform="translate(665,791)" d="m0 0h4l2 14-11 2-4 3-1 25h-18v-43h18l1 6 5-5z" fill="#4885AD"/>
<path transform="translate(504,713)" d="m0 0h4l2 14-11 2-4 3-1 25h-18v-43h18l1 6 5-5z" fill="#4885AD"/>
<path transform="translate(621,889)" d="m0 0h20v5h-3v16l-3 5-4 2h-10l-4-2 1-5 9 1 2-1-1-1h-6l-5-4-1-2v-8l3-5z" fill="#060708"/>
<path transform="translate(365,509)" d="m0 0 4 1 3 11v3l14 3 1 4-14 4-4 14h-4l-4-14-14-4v-4l15-3 1-8z" fill="#4885AD"/>
<path transform="translate(537,879)" d="m0 0h10v25h2v5h-19l-5-5-1-7 3-6 3-2h8l1-5h-2z" fill="#060708"/>
<path transform="translate(513,888)" d="m0 0 6 1 2 2 1 4v9h2v5h-11l-1-14h-3v9h3v5h-13v-5h2v-10h-2v-5h9 3z" fill="#0B0C0D"/>
<path transform="translate(453,888)" d="m0 0 6 1 2 2 1 4v9h2v5h-11l-1-14h-3v9h3v5h-13v-5h2v-10h-2v-5h9 3z" fill="#0B0C0D"/>
<path transform="translate(696,888)" d="m0 0 6 1 3 4v11h2v5h-10l-1-13h-3l-1 8h3v5h-13v-5h2v-10h-2v-5h9 3z" fill="#060708"/>
<path transform="translate(664,888)" d="m0 0h8l5 3 2 5v8h2v5h-11l-6 1-5-3-1-6 5-5h7v-2l-10 1-1-5z" fill="#101113"/>
<path transform="translate(598,888)" d="m0 0h8l5 3 2 5v8h2v5h-11l-6 1-5-3-1-6 5-5h7v-2l-10 1-1-5z" fill="#101113"/>
<path transform="translate(480,888)" d="m0 0h9l5 3 1 2v11h3v5h-11l-6 1-5-3-1-1v-6l4-4h7l1-2-10 1-1-5z" fill="#0F1112"/>
<path transform="translate(420,888)" d="m0 0h9l5 3 1 2v11h3v5h-11l-6 1-5-3-1-1v-6l4-4h7l1-2-10 1-1-5z" fill="#0F1112"/>
<path transform="translate(583,185)" d="m0 0 1 4-6 16-5 12-1-3-17-4-7-1v-1l7-2 12-8 13-10z" fill="#4A555F"/>
<path transform="translate(527,413)" d="m0 0h9l5 4 1 3v7l-4 5-8 2-6-3-3-5 1-9z" fill="#4B555F"/>
<path transform="translate(512,361)" d="m0 0h8l5 4 2 7-3 7-5 3h-6l-6-4-1-2v-9l4-5z" fill="#4B555F"/>
<path transform="translate(546,459)" d="m0 0 7 1 5 5 1 7-3 6-4 2h-8l-5-4-1-2v-8l4-5z" fill="#4B555F"/>
<path transform="translate(402,888)" d="m0 0 8 2 3 3 1 6-1 2h-12l1 2h9l2 4-6 3-9-1-4-4-1-2v-8l5-6z" fill="#101112"/>
<path transform="translate(783,306)" d="m0 0h2l3 12 11 2v4l-11 3-3 11h-3l-3-11-10-3v-4l10-3 3-10z" fill="#4885AD"/>
<path transform="translate(842,419)" d="m0 0 4 2v13l-3 10-7 11-8 7-5 1-2-4 5-5 5-4 7-14 1-3 1-13z" fill="#9ACCFC"/>
<path transform="translate(568,878)" d="m0 0 8 1-2 5h-4v5h4v5h-4v10h2v5h-11l1-15h-2v-5h2v-6l3-4z" fill="#070809"/>
<path transform="translate(308,484)" d="m0 0 5 1v15l-5 12-6 8-7 6-5 1-1-5 10-9 6-12 2-16z" fill="#9ACCFC"/>
<path transform="translate(364,889)" d="m0 0h14v9h-6l-1-3h-3l-1 5 3 3 6-1 3 4-5 3-6 1-7-3-3-5v-7l4-5z" fill="#060708"/>
<path transform="translate(380,879)" d="m0 0h10v25h2v5h-12v-5h2v-20h-2z" fill="#090B0C"/>
<path transform="translate(427,249)" d="m0 0 2 1-10 8-8 6v2l-5-2-11-6-4-4z" fill="#4B555F"/>
<path transform="translate(716,883)" d="m0 0h2v6h3v5h-3v10h3v5l-7 1-3-2-1-3v-11h-2v-5h2v-4z" fill="#0D0E10"/>
<path transform="translate(597,805)" d="m0 0h8l5 6-1 7-5 4h-6l-5-4-1-6 3-5z" fill="#E5ECFC"/>
<path transform="translate(423,805)" d="m0 0h8l4 4 1 5-3 6-3 2h-6l-5-4-1-7 3-5z" fill="#E5ECFC"/>
<path transform="translate(588,888)" d="m0 0h3v7l-5 1-1 8h2v5h-11v-20h8 2z" fill="#070809"/>
<path transform="translate(654,888)" d="m0 0h3v7l-4 2-1 6 1 1v5h-11v-5h2v-10h-2v-5h8 2z" fill="#030303"/>
<path transform="translate(828,525)" d="m0 0 3 3 1 6 8 1v3l-8 3-2 7-3-1-2-7-8-3 1-2 7-2z" fill="#4885AD"/>
<path transform="translate(354,593)" d="m0 0 3 1 1 7 8 2-1 3-7 1-1 7-3 1-2-7-8-3v-2l8-3z" fill="#4885AD"/>
<path transform="translate(913,332)" d="m0 0 5 1 2 2-1 5-2 2-13 1 1-4 5-6z" fill="#E7EDFD"/>
<path transform="translate(200,332)" d="m0 0h5l6 7 1 3-1 1-11-1-4-3 1-5z" fill="#E7EDFD"/>
<path transform="translate(535,723)" d="m0 0 5 1 3 3v2l-13 3v-5z" fill="#E3EBFC"/>
<path transform="translate(534,894)" d="m0 0 4 1 1 6-3 3-3-3z" fill="#E7EDFD"/>
<path transform="translate(626,894)" d="m0 0h3l1 2v6l-3 2-3-5z" fill="#E7EDFD"/>
</svg>
