<?xml version="1.0" encoding="UTF-8"?>
<svg version="1.1" viewBox="0 0 2048 320" width="1280" height="1280" xmlns="http://www.w3.org/2000/svg">
<path transform="translate(329,38)" d="m0 0h27l20 4 15 5 19 10 12 9 10 9 10 11 10 15 8 17 5 17 3 19v18l-3 20-5 16-6 14-10 16-9 10-6 7-11 9-14 9-14 7-15 5-14 3-10 1h-18l-19-3-17-5-17-8-12-8-11-9-10-10-11-15-10-19-6-18-3-17v-27l3-17 7-21 8-15 8-11 9-10 10-10 14-10 15-8 21-7z" fill="#E8EEFD"/>
<path transform="translate(353,79)" d="m0 0 14 1 22 2 21 1 2 3v14l-5 19-5 11-11-5-9-4 9 19 14 27 15 28 6 11-1 5-9 9-17 11-23 11-18 5-24 4h-25l-3-12-15-71-3-13-8 16-1 3-5-1-15-9-11-9-6-9 1-4 8-7 12-11 17-17 2-3h2l6 21 4 7v2h9l11-8 10-10 1-2 15 1h14l8-2v-10l-4-12-5-10z" fill="#FDCC34"/>
<path transform="translate(1648,91)" d="m0 0h5v126h-38l-1-15-6 8-9 6-7 2h-15l-11-4-9-6-7-7-6-10-3-9-1-7v-8l3-14 6-11 10-10 14-7 5-1h14l11 4 8 7 3 5 1-44zm-57 62-7 4-5 8v12l4 6 6 5 2 1h11l8-5 4-6 1-4v-7l-4-8-5-4-4-2z" fill="#FECC33"/>
<path transform="translate(1753,125)" d="m0 0h38l1 55 4 8 5 2 9-1 5-5 2-6 1-53h38l1 1v74l-2 16-5 15-7 11-9 8-12 6-9 2h-24l-6-1v-9l2-18 2-1h19l8-4 4-7 2-11v-5l-7 9-12 6-4 1h-12l-13-4-10-9-5-9-3-9-1-6z" fill="#FECC33"/>
<path transform="translate(953,91)" d="m0 0h6l1 49 6-8 10-6 7-2h14l10 3 8 6 6 7 5 12 2 12v52l-1 1h-37l-1-1-1-56-3-6-4-2h-8l-7 4-5 8-1 3-1 49-1 1h-37l-1-1v-119l6-2z" fill="#FECC33"/>
<path transform="translate(1211,124)" d="m0 0h13l11 4 8 7 4 7 1-18h38v93h-38l-1-15-4 6-7 6-11 4h-14l-10-3-10-6-8-8-7-12-3-13v-11l3-12 5-10 7-8 11-7 8-3zm13 29-6 4-5 6-1 2v12l4 6 6 5 3 1h10l7-4 4-5 2-5v-8l-4-8-6-5-3-1z" fill="#FECC33"/>
<path transform="translate(1482,124)" d="m0 0h15l11 4 8 7 4 5 4 8 3 14v55h-38l-1-53-3-9-5-3h-8l-7 4-5 8-1 4-1 48-1 1h-37l-1-1v-89l1-1h35l1 1 1 15 8-10 10-6z" fill="#FECC33"/>
<path transform="translate(552,91)" d="m0 0h86v28h-47v25h44v23h-44v50h-39z" fill="#FECC33"/>
<path transform="translate(1304,125)" d="m0 0h37l1 1 1 56 2 4 7 3 6-1 5-5 1-3 1-55h36l1 1v55l-3 12-6 10-8 7-13 6-10 2h-18l-12-3-12-6-8-7-5-8-3-10z" fill="#FECC33"/>
<path transform="translate(1082,91)" d="m0 0h40v98h43v28h-82l-1-1z" fill="#FECC33"/>
<path transform="translate(772,124)" d="m0 0h16l13 4 11 8 6 9 4 12 1 14-2 3-46 6h-7l3 6 5 4 3 1h19l16-5 2 6 3 16v3l-15 5-11 2h-20l-13-3-11-6-10-9-6-10-3-11v-16l4-13 7-10 9-8 10-5zm5 22-7 4-3 5-1 8 10-1 18-4-1-5-4-5-5-2z" fill="#FECC33"/>
<path transform="translate(863,124)" d="m0 0h22l13 3 3 2-1 11-2 10-8-1-5-1h-17l-2 1-1 5 16 4 12 5 8 6 5 9 1 13-3 10-6 8-7 5-9 3-5 1h-21l-16-3-6-2 1-9 3-13 14 3h18l2-2v-5l-10-3-12-3-8-4-5-5-3-4-2-6v-14l4-10 7-7 8-4z" fill="#FECC33"/>
<path transform="translate(395,152)" d="m0 0 3 1 18 35 10 18-1 5-9 9-17 11-23 11-18 5-24 4h-25l-3-12-2-10v-6l17 2 16-1 13-4 10-5 10-9 7-8 8-14 6-15z" fill="#FEBC25"/>
<path transform="translate(714,124)" d="m0 0h6l5 26v4l-20 2-10 5-2 3-1 52-1 1h-38v-90l1-1h37l1 1 1 14 6-9 5-4 6-3z" fill="#FECC33"/>
<path transform="translate(1732,124)" d="m0 0h7l5 27v3l-20 2-9 4-3 4-1 3-1 50h-38v-91h38l1 16 6-9 7-6z" fill="#FECC33"/>
<path transform="translate(318,85)" d="m0 0 8 1 22 6-6 10-9 9-8 4-10 1-12-2-10-4v-2l9-7z" fill="#E8EEFE"/>
<path transform="translate(310,63)" d="m0 0h6l5 4 1 3v7l-2 6 17 4 10 2v2h2l3-10h2l7 15 2 7v8l-3 3-6 2h-14l-12-2 5-4 8-8 6-9-25-7-5 1-18 18-4 3h-3l1-3 9-7 10-9 6-8 1-3v-8l-3-4h-6l-2 5 3 4-1 3-4-5v-7z" fill="#FDFDFD"/>
<path transform="translate(284,105)" d="m0 0 16 7 7 2 12 1h6l-6 7-7 7-9 6h-7l-4-4-5-12-3-11z" fill="#FDFDFD"/>
<path transform="translate(333,133)" d="m0 0 3 1 2 6-1 2 2 1-1 2 2 1-1 2 2 1-1 2 2 1-1 2 2 1-1 2 2 1-1 2 2 1 2 9 4 11 2 3 1 6 2 3 1 6 1 2-2 4-2-1-1-6-2-3-1-6-2-3-1-6-2-3-1-6-2-3-1-5 1-2-2-1 1-2-2-1 1-2-2-1 1-2-2-1 1-2-2-1 1-2-2-1 1-2-2-1z" fill="#FEBC26"/>
<path transform="translate(310,63)" d="m0 0h6l5 4 1 3v7l-2 6 17 4 10 2 1 3-8-1-18-5-5 1-18 18-4 3h-3l1-3 9-7 10-9 6-8 1-3v-8l-3-4h-6l-2 5 3 4-1 3-4-5v-7z" fill="#FFBC25"/>
<path transform="translate(419,138)" d="m0 0 6 1 2 3v6l-3 3h-6l-3-2-1-6z" fill="#FDFDFD"/>
<path transform="translate(270,183)" d="m0 0h6l3 4-1 5-3 2-5-1-2-2v-6z" fill="#FDFDFD"/>
<path transform="translate(350,59)" d="m0 0 7 1 1 5-2 3-4 1-4-3 1-6z" fill="#FDFDFD"/>
<path transform="translate(332,159)" d="m0 0 4 1 1 5-1 1h-5l-1-5z" fill="#E8EEFE"/>
<path transform="translate(337,176)" d="m0 0h5l1 5-2 2-4-1-1-5z" fill="#E8EEFE"/>
<path transform="translate(327,141)" d="m0 0 4 1 1 3-2 3-5-1v-5z" fill="#E8EEFE"/>
</svg>
